<svg width="395" height="152" viewBox="0 0 395 152" fill="none" xmlns="http://www.w3.org/2000/svg">
<path d="M180.999 1.11431C182.598 0.203365 184.445 -0.162757 186.265 0.0667271L186.629 0.121595L387.064 34.2528C394.988 35.6021 396.857 46.2017 389.873 50.1799L213.198 150.806C211.492 151.778 209.504 152.128 207.568 151.799L7.13154 117.668L6.76418 117.597C-0.728098 116.014 -2.49715 105.982 4.00174 101.931L4.32315 101.74L180.999 1.11431ZM186.269 2.26835C184.825 2.02265 183.342 2.28408 182.069 3.0089L5.39417 103.636C0.182487 106.604 1.57691 114.513 7.48964 115.52L207.927 149.652C209.37 149.898 210.854 149.636 212.126 148.911L388.803 48.2842C394.014 45.3157 392.62 37.4073 386.707 36.4002L186.269 2.26835ZM205.496 123.553C207.365 123.224 209.012 123.412 210.432 124.127C211.84 124.811 212.982 125.819 213.86 127.148C214.736 128.474 215.312 129.926 215.591 131.502C215.869 133.079 215.825 134.655 215.461 136.229C215.091 137.778 214.364 139.131 213.28 140.282L213.278 140.283C212.184 141.412 210.699 142.138 208.831 142.468C206.99 142.792 205.343 142.604 203.897 141.894C202.573 141.227 201.482 140.287 200.628 139.077L200.459 138.831C199.579 137.477 199 136.011 198.722 134.434C198.444 132.858 198.491 131.31 198.866 129.792C199.236 128.243 199.966 126.904 201.055 125.78C202.144 124.623 203.628 123.883 205.496 123.553ZM205.708 124.755C204.115 125.035 202.852 125.671 201.911 126.656C200.993 127.642 200.378 128.801 200.067 130.135C199.755 131.473 199.721 132.832 199.965 134.215C200.209 135.597 200.708 136.877 201.463 138.055L201.611 138.272C202.368 139.338 203.313 140.17 204.443 140.77L204.668 140.879C205.81 141.398 207.126 141.53 208.62 141.267C210.213 140.986 211.462 140.352 212.375 139.372C213.32 138.382 213.946 137.206 214.252 135.845C214.559 134.479 214.592 133.104 214.348 131.722C214.104 130.339 213.607 129.074 212.856 127.924L212.855 127.923C212.101 126.748 211.125 125.856 209.925 125.244C208.732 124.635 207.329 124.469 205.708 124.755ZM206.174 126.93C207.37 126.719 208.299 126.906 208.932 127.52C209.54 128.089 209.912 128.722 210.035 129.417C210.171 130.192 210.056 130.912 209.687 131.572C209.398 132.092 208.97 132.44 208.411 132.623C208.749 132.629 209.039 132.724 209.277 132.917C209.61 133.186 209.823 133.63 209.928 134.228L210.268 136.155C210.296 136.315 210.343 136.501 210.407 136.713C210.442 136.784 210.487 136.829 210.543 136.853C210.602 136.878 210.682 136.887 210.79 136.868C210.921 136.845 211.002 136.78 211.046 136.675C211.093 136.561 211.103 136.388 211.06 136.145L210.703 134.119L211.624 133.957L212.01 136.15C212.077 136.53 212.048 136.94 211.926 137.375L211.924 137.379C211.784 137.826 211.368 138.092 210.736 138.204C210.206 138.297 209.768 138.209 209.443 137.918L209.441 137.916C209.123 137.607 208.922 137.202 208.836 136.71L208.474 134.657C208.366 134.05 208.179 133.69 207.935 133.533L207.93 133.53C207.711 133.37 207.312 133.324 206.698 133.432L206.112 133.536L206.847 137.704L208.158 137.635L208.246 137.63L208.39 138.444L204.167 139.189L204.023 138.375L204.108 138.349L205.323 137.973L203.633 128.389L202.363 128.452L202.274 128.457L202.131 127.643L206.174 126.93ZM205.922 132.459L206.75 132.313C207.465 132.187 207.967 131.956 208.272 131.633C208.566 131.321 208.667 130.811 208.536 130.07L208.44 129.526C208.32 128.845 208.054 128.383 207.654 128.119C207.253 127.855 206.697 127.775 205.973 127.903L205.145 128.049L205.922 132.459ZM165.46 99.2021C165.746 100.82 165.68 102.284 165.264 103.593C164.848 104.901 164.122 105.982 163.087 106.837C162.072 107.687 160.77 108.254 159.181 108.534C157.131 108.895 155.333 108.605 153.788 107.664C152.238 106.702 151.101 105.147 150.377 102.999L153.966 101.521C154.37 102.837 154.96 103.795 155.734 104.396C156.525 104.971 157.476 105.161 158.584 104.965C159.776 104.755 160.638 104.203 161.17 103.307C161.72 102.387 161.859 101.159 161.588 99.625L159.142 85.7531L162.97 85.0782L165.46 99.2021ZM173.47 88.0698C174.997 87.8006 176.409 87.9204 177.706 88.4285C179.003 88.9366 180.091 89.7851 180.969 90.9738C181.868 92.1589 182.474 93.6342 182.785 95.3996C183.092 97.144 183.028 98.7374 182.592 100.179C182.174 101.597 181.442 102.766 180.397 103.687C179.352 104.608 178.065 105.203 176.539 105.472C175.012 105.741 173.6 105.623 172.303 105.114C171.006 104.606 169.908 103.76 169.009 102.575C168.127 101.365 167.532 99.8878 167.224 98.1434C166.913 96.3779 166.967 94.7864 167.386 93.3689C167.825 91.9479 168.567 90.7768 169.612 89.8557C170.657 88.9346 171.943 88.339 173.47 88.0698ZM188.426 95.7704C188.667 97.1362 189.185 98.1176 189.981 98.7141C190.772 99.2896 191.659 99.491 192.642 99.3177C193.604 99.1481 194.36 98.6571 194.906 97.8455C195.416 97.065 195.58 96.0499 195.4 94.8005L195.359 94.5479L193.653 84.8691L197.292 84.2274L200.238 100.936L196.599 101.578L196.136 98.9555C195.812 99.9229 195.308 100.729 194.622 101.373C193.848 102.117 192.885 102.59 191.735 102.793C190.083 103.084 188.622 102.746 187.351 101.778C186.098 100.785 185.292 99.2699 184.932 97.2313L183.081 86.7331L186.72 86.0915L188.426 95.7704ZM233.173 77.5425C235.265 77.1738 236.995 77.4436 238.362 78.351C239.73 79.2585 240.585 80.6898 240.93 82.6442L242.175 89.7062C242.394 90.9461 242.77 92.1584 243.302 93.343L239.601 93.9957C239.379 93.4714 239.175 92.9324 238.991 92.3797C238.882 92.0045 238.788 91.6311 238.709 91.2604C238.311 92.3303 237.711 93.2177 236.902 93.9193C236.023 94.6809 234.987 95.1662 233.795 95.3764C232.289 95.6419 231.023 95.432 229.996 94.7462C228.991 94.0568 228.371 93.0501 228.138 91.7262C227.915 90.4651 228.14 89.2978 228.814 88.2255C229.508 87.1496 230.706 86.2991 232.408 85.674L237.401 83.9041L237.358 83.6637C237.132 82.3816 236.646 81.5246 235.901 81.0924C235.178 80.6568 234.377 80.5164 233.499 80.6712C232.683 80.815 232.023 81.1697 231.519 81.7353C231.036 82.2972 230.752 83.0732 230.668 84.063L227.045 83.6943C227.199 81.9988 227.82 80.6326 228.909 79.5954C230.016 78.5335 231.437 77.8486 233.173 77.5425ZM209.352 86.0018L207.942 86.2506C206.791 86.4534 205.924 86.9199 205.342 87.6511C204.78 88.3531 204.621 89.4122 204.866 90.8277L206.456 99.8401L202.816 100.482L199.87 83.7727L203.509 83.131L204.102 86.4894C204.373 85.2927 204.845 84.3041 205.519 83.5243C206.293 82.6513 207.328 82.0999 208.624 81.8712L209.352 86.0018ZM218.393 80.1486C219.523 79.9495 220.563 80.0375 221.513 80.4117C222.463 80.786 223.266 81.4243 223.921 82.3273C224.576 83.2303 225.022 84.3548 225.259 85.6998L227.111 96.198L223.471 96.8397L221.765 87.1609C221.524 85.7948 220.998 84.8252 220.185 84.2534C219.39 83.6569 218.501 83.4458 217.518 83.619C216.535 83.7923 215.761 84.2968 215.197 85.133C214.65 85.9445 214.497 87.0339 214.737 88.4L216.444 98.0788L212.805 98.7205L209.859 82.0115L213.498 81.3698L213.975 84.0732C214.295 83.0615 214.805 82.2262 215.506 81.568C216.302 80.821 217.264 80.3478 218.393 80.1486ZM249.044 92.3306L245.405 92.9723L241.43 70.4304L245.069 69.7887L249.044 92.3306ZM234.118 88.0378C233.148 88.4039 232.489 88.8239 232.141 89.2968C231.793 89.7699 231.665 90.2699 231.758 90.7953C231.836 91.2366 232.086 91.6148 232.508 91.9303C232.927 92.2249 233.513 92.3055 234.265 92.1728C234.976 92.0474 235.636 91.758 236.246 91.3039C236.877 90.8459 237.357 90.2628 237.685 89.5548C237.987 88.9136 238.096 88.2069 238.011 87.4347L237.964 87.0999L237.868 86.5546L234.118 88.0378ZM174.048 91.3493C172.835 91.5632 171.94 92.1753 171.364 93.1871C170.788 94.1989 170.663 95.63 170.989 97.4795C171.315 99.3287 171.922 100.63 172.809 101.384C173.697 102.138 174.748 102.408 175.961 102.194C177.174 101.98 178.069 101.367 178.645 100.355C179.221 99.3432 179.346 97.9127 179.02 96.0635C178.694 94.214 178.087 92.9118 177.2 92.1581C176.312 91.4045 175.261 91.1354 174.048 91.3493ZM25.7269 101.963L27.9764 101.566L28.1329 102.454L25.8662 102.853L26.7815 108.045C26.8564 108.469 26.995 108.768 27.1971 108.939C27.3971 109.099 27.6362 109.155 27.9138 109.106C28.1026 109.073 28.274 109.002 28.4268 108.895C28.5908 108.785 28.765 108.639 28.9505 108.457L29.4274 108.822C29.0762 109.494 28.4726 109.905 27.6171 110.056C27.0397 110.158 26.551 110.083 26.1516 109.832C25.7521 109.58 25.4953 109.13 25.3811 108.482L25.2717 107.862C25.2455 107.648 25.2035 107.379 25.1465 107.056L24.4495 103.103L23.0666 103.347L22.9365 102.609L24.3871 102.164L24.425 99.843L25.4252 99.6666L25.7269 101.963ZM31.8906 100.651C32.4683 100.549 33.0134 100.586 33.5253 100.76C34.0371 100.935 34.4743 101.237 34.8367 101.668C35.1971 102.088 35.4382 102.639 35.5583 103.32C35.5917 103.51 35.6118 103.69 35.6191 103.862C35.6244 104.022 35.6199 104.161 35.6063 104.278L30.2899 105.216C30.4932 106.239 30.8867 106.975 31.4698 107.425C32.0532 107.875 32.7456 108.029 33.5456 107.888C34.0788 107.794 34.5044 107.61 34.8224 107.335C35.1385 107.049 35.4158 106.706 35.6547 106.308L36.1109 106.555C35.9042 107.202 35.5656 107.751 35.0953 108.202C34.6231 108.642 34.0093 108.929 33.2538 109.062C32.1317 109.26 31.168 109.056 30.3623 108.45C29.5546 107.832 29.0377 106.881 28.8112 105.597C28.6597 104.738 28.6997 103.959 28.9319 103.262C29.1752 102.563 29.5548 101.984 30.0695 101.525C30.5952 101.064 31.202 100.772 31.8906 100.651ZM39.52 99.3054C40.0198 99.2172 40.4976 99.2309 40.9532 99.3462C41.4088 99.4616 41.8054 99.6627 42.1422 99.9487C42.477 100.223 42.714 100.561 42.8535 100.963C42.8506 101.401 42.6326 101.658 42.1993 101.734C41.9218 101.783 41.6981 101.748 41.5282 101.629C41.3673 101.496 41.2379 101.317 41.141 101.092L40.6461 100.04C40.4807 100.012 40.3194 100.005 40.1619 100.021C40.0135 100.024 39.8666 100.039 39.7222 100.064C39.0114 100.189 38.4723 100.573 38.1042 101.213C37.7471 101.852 37.6626 102.707 37.8516 103.779C38.0367 104.829 38.4286 105.588 39.0269 106.058C39.6253 106.528 40.3136 106.695 41.0913 106.558C41.5689 106.473 41.9893 106.29 42.3518 106.007C42.7121 105.714 42.9838 105.338 43.1665 104.88L43.6212 105.024C43.51 105.757 43.2259 106.354 42.7688 106.814C42.3115 107.275 41.6884 107.575 40.8995 107.714C39.7552 107.916 38.7781 107.702 37.9684 107.074C37.159 106.445 36.6409 105.489 36.4145 104.205C36.259 103.323 36.3043 102.538 36.5496 101.85C36.804 101.149 37.1959 100.579 37.7256 100.14C38.2554 99.7016 38.8534 99.4229 39.52 99.3054ZM348.188 40.6833L348.541 43.0734L350.139 52.1338L351.523 52.0969L351.63 52.6999L349.076 53.3227L348.756 52.1872C348.534 52.6178 348.252 52.9725 347.912 53.2513C347.583 53.528 347.157 53.7126 346.635 53.8046C345.957 53.9241 345.333 53.8557 344.761 53.5997C344.189 53.3437 343.704 52.9347 343.307 52.3716C342.918 51.7953 342.653 51.0991 342.509 50.284C342.358 49.4245 342.381 48.6492 342.58 47.9581C342.779 47.2669 343.113 46.6954 343.584 46.2441C344.054 45.7928 344.628 45.5066 345.306 45.3871C345.694 45.3186 346.081 45.3313 346.464 45.4249C346.858 45.5165 347.264 45.7386 347.681 46.0908L347.013 42.3064L345.567 42.3889L345.464 41.8022L347.931 40.5897L348.188 40.6833ZM353.682 43.9101C354.56 43.7553 355.249 43.8646 355.75 44.2367C356.249 44.5976 356.592 45.3082 356.779 46.3686L357.408 49.9366C357.471 50.2938 357.572 50.5409 357.711 50.6776C357.847 50.8032 358.005 50.8499 358.183 50.8185C358.327 50.793 358.443 50.7384 358.532 50.6539C358.62 50.5693 358.699 50.4629 358.768 50.3355L359.166 50.6452C359.023 51.0042 358.841 51.2723 358.62 51.4494C358.409 51.6133 358.159 51.7211 357.87 51.7721C357.47 51.8426 357.116 51.7839 356.808 51.5964C356.5 51.409 356.278 51.126 356.142 50.7469C355.765 51.2739 355.424 51.6795 355.119 51.9636C354.814 52.2474 354.418 52.4323 353.929 52.5185C353.318 52.6263 352.759 52.5463 352.253 52.2785C351.757 51.9976 351.449 51.5107 351.327 50.8186C351.27 50.4949 351.288 50.181 351.384 49.8764C351.49 49.57 351.719 49.2476 352.072 48.9092C352.425 48.5708 352.95 48.2017 353.647 47.8025C353.887 47.6682 354.165 47.5213 354.48 47.362C354.796 47.2029 355.113 47.0544 355.432 46.9175L355.359 46.4992C355.215 45.6841 354.997 45.1633 354.706 44.9385C354.414 44.7137 353.99 44.6502 353.434 44.7481C353.312 44.7696 353.174 44.8003 353.021 44.8388C352.879 44.8754 352.723 44.9317 352.553 45.0076L352.428 46.1523C352.367 46.7155 352.125 47.0346 351.703 47.1091C351.236 47.1912 350.935 47.0081 350.799 46.5604C350.842 45.8966 351.12 45.3289 351.632 44.8586C352.154 44.3751 352.838 44.059 353.682 43.9101ZM360.117 43.0005L362.367 42.6039L362.523 43.4916L360.256 43.8913L361.172 49.0836C361.247 49.5077 361.385 49.8057 361.587 49.9772C361.787 50.1375 362.026 50.1932 362.304 50.1444C362.493 50.1111 362.664 50.0405 362.817 49.9329C362.981 49.8234 363.156 49.6777 363.342 49.4953L363.818 49.8596C363.467 50.5316 362.864 50.943 362.008 51.0939C361.431 51.1958 360.941 51.1215 360.542 50.8696C360.142 50.6177 359.886 50.1676 359.771 49.52L359.662 48.9006C359.636 48.6866 359.594 48.4175 359.537 48.0937L358.84 44.141L357.457 44.3849L357.327 43.6482L358.777 43.2021L358.815 40.8809L359.816 40.7046L360.117 43.0005ZM365.915 41.7532C366.792 41.5984 367.482 41.7075 367.983 42.0796C368.482 42.4406 368.824 43.1514 369.012 44.2118L369.641 47.7798C369.704 48.137 369.805 48.3839 369.944 48.5206C370.08 48.646 370.237 48.6929 370.415 48.6616C370.559 48.6362 370.676 48.5815 370.764 48.497C370.852 48.4124 370.931 48.306 371 48.1787L371.399 48.4882C371.256 48.8472 371.073 49.1154 370.852 49.2925C370.641 49.4564 370.391 49.5643 370.102 49.6152C369.702 49.6857 369.348 49.627 369.04 49.4396C368.732 49.2521 368.51 48.969 368.374 48.5901C367.998 49.1168 367.657 49.5225 367.352 49.8065C367.047 50.0906 366.65 50.2755 366.161 50.3617C365.55 50.4694 364.992 50.3892 364.487 50.1215C363.99 49.8406 363.681 49.354 363.559 48.6618C363.502 48.3381 363.521 48.0241 363.616 47.7196C363.722 47.413 363.952 47.0907 364.305 46.7522C364.658 46.4138 365.182 46.0448 365.879 45.6457C366.119 45.5113 366.397 45.3644 366.713 45.2052C367.028 45.0459 367.346 44.8974 367.665 44.7605L367.592 44.3421C367.448 43.527 367.229 43.0065 366.938 42.7816C366.646 42.557 366.223 42.4932 365.668 42.5911C365.545 42.6126 365.407 42.6434 365.253 42.682C365.111 42.7186 364.955 42.7748 364.785 42.8508L364.661 43.9952C364.6 44.5584 364.358 44.8774 363.936 44.952C363.469 45.0343 363.167 44.8514 363.031 44.4035C363.074 43.7397 363.353 43.1719 363.865 42.7016C364.387 42.2183 365.07 41.9021 365.915 41.7532ZM44.5775 94.217L44.9305 96.6071L45.5005 99.8394C45.8308 99.3093 46.2436 98.8568 46.7386 98.4817C47.2318 98.0955 47.7452 97.8551 48.2784 97.761C49.0005 97.6337 49.5776 97.7851 50.0086 98.2155C50.4488 98.633 50.765 99.3894 50.9579 100.484L51.4629 103.348C51.5607 103.837 51.6528 104.293 51.7388 104.715L52.9467 104.744L53.053 105.347L49.1869 106.029L49.0806 105.426L50.2587 104.993C50.195 104.567 50.1195 104.108 50.0328 103.617C49.9554 103.113 49.8829 102.671 49.816 102.291L49.5649 100.867C49.429 100.097 49.2302 99.5852 48.968 99.3321C48.7057 99.0791 48.3298 98.9955 47.841 99.0817C47.43 99.1542 47.0557 99.3063 46.7187 99.5384C46.3816 99.7705 46.0367 100.119 45.6834 100.585L46.3302 104.253C46.4279 104.742 46.5201 105.198 46.606 105.62L47.7967 105.652L47.903 106.255L44.0368 106.937L43.9305 106.334L45.1394 105.879C45.0757 105.452 45.0002 104.994 44.9136 104.502C44.8361 103.998 44.7646 103.562 44.6996 103.194L43.403 95.8402L42.0069 95.9138L41.9037 95.3281L44.3212 94.1244L44.5775 94.217ZM345.724 46.298C345.313 46.3705 344.95 46.5557 344.636 46.8528C344.331 47.1368 344.116 47.5429 343.992 48.071C343.866 48.5883 343.87 49.2268 344.003 49.9858C344.196 51.0801 344.555 51.8523 345.081 52.3007C345.616 52.7359 346.217 52.8946 346.883 52.7772C347.25 52.7125 347.559 52.5825 347.811 52.3884C348.073 52.1812 348.329 51.8775 348.579 51.4767L347.761 46.8373C347.324 46.569 346.945 46.3998 346.623 46.3299C346.302 46.26 346.002 46.249 345.724 46.298ZM355.542 47.5369C355.267 47.6659 354.999 47.8056 354.74 47.9549C354.478 48.0932 354.263 48.2118 354.097 48.3102C353.653 48.5841 353.332 48.8419 353.134 49.0839C352.936 49.326 352.815 49.5493 352.771 49.7528C352.738 49.9543 352.736 50.1387 352.765 50.3061C352.844 50.7527 353.028 51.0489 353.317 51.1936C353.606 51.3384 353.939 51.3773 354.317 51.3108C354.483 51.2814 354.635 51.2312 354.771 51.1612C354.919 51.0891 355.088 50.9731 355.277 50.8132C355.465 50.642 355.704 50.4042 355.993 50.0999L355.542 47.5369ZM367.775 45.3798C367.5 45.5089 367.232 45.6486 366.972 45.7981C366.71 45.9364 366.495 46.055 366.329 46.1533C365.885 46.4273 365.564 46.685 365.366 46.927C365.168 47.1691 365.047 47.3924 365.003 47.5959C364.97 47.7974 364.968 47.9819 364.998 48.1493C365.076 48.5959 365.261 48.8918 365.55 49.0366C365.839 49.1811 366.172 49.2204 366.549 49.1539C366.716 49.1245 366.868 49.0743 367.005 49.0042C367.152 48.9321 367.321 48.8161 367.51 48.6561C367.698 48.485 367.937 48.2471 368.227 47.9428L367.775 45.3798ZM31.9264 101.439C31.6156 101.494 31.315 101.639 31.0245 101.874C30.745 102.108 30.523 102.441 30.3586 102.872C30.2053 103.302 30.1521 103.847 30.1996 104.507L33.2329 103.972C33.6324 103.901 33.8786 103.772 33.9715 103.583C34.0752 103.392 34.1054 103.173 34.0621 102.927C34.005 102.604 33.8694 102.322 33.6555 102.084C33.4509 101.832 33.1953 101.647 32.8884 101.529C32.5922 101.408 32.2709 101.378 31.9264 101.439ZM161.763 63.0647L166.405 62.2461L166.955 65.3679L162.313 66.1864L163.692 74.0043C163.855 74.9291 164.195 75.5737 164.712 75.9376C165.25 76.2977 165.947 76.402 166.805 76.2508C167.202 76.1807 167.573 76.0832 167.917 75.9574C168.262 75.8318 168.594 75.6977 168.913 75.5547L169.508 78.9275C169.091 79.131 168.646 79.296 168.172 79.4228C167.702 79.5707 167.154 79.7006 166.526 79.8112C164.832 80.1099 163.423 79.881 162.298 79.1259C161.173 78.3707 160.447 77.0686 160.121 75.219L158.642 66.8337L156.384 67.2319L155.834 64.1101L158.092 63.712L157.48 60.244L161.023 58.8716L161.763 63.0647ZM267.612 61.6292L263.973 62.2709L263.494 59.5578C263.364 60.0103 263.191 60.432 262.973 60.8218C262.154 62.2882 260.875 63.1749 259.14 63.481C257.864 63.7059 256.673 63.5581 255.568 63.0379C254.463 62.5176 253.513 61.6558 252.718 60.4524C251.945 59.2452 251.399 57.7374 251.08 55.9299C250.758 54.1017 250.755 52.4986 251.073 51.1208C251.408 49.7181 252.006 48.5825 252.866 47.7156C253.727 46.8488 254.795 46.3036 256.071 46.0786C257.807 45.7725 259.311 46.1676 260.583 47.2653C260.921 47.557 261.227 47.8944 261.505 48.2749L259.998 39.7299L263.637 39.0882L267.612 61.6292ZM148.128 65.1109C149.613 64.8491 150.981 64.9655 152.233 65.46C153.485 65.9544 154.539 66.7978 155.396 67.9901C156.274 69.1789 156.873 70.6775 157.191 72.485L157.286 73.0207C157.315 73.1888 157.342 73.4013 157.365 73.6572L145.97 75.6665C146.317 76.9133 146.825 77.8312 147.498 78.4194C148.382 79.1521 149.463 79.4058 150.739 79.1809C151.575 79.0334 152.264 78.717 152.803 78.2317C153.343 77.7465 153.704 77.0435 153.886 76.123L157.544 76.681C157.294 78.1986 156.614 79.4784 155.503 80.5193C154.41 81.5356 152.985 82.198 151.228 82.5078C149.68 82.7807 148.258 82.6637 146.96 82.1556C145.684 81.6438 144.607 80.7934 143.729 79.6047C142.847 78.3949 142.253 76.9177 141.945 75.1733C141.626 73.3658 141.676 71.753 142.095 70.3356C142.534 68.9146 143.268 67.7559 144.296 66.8595C145.345 65.9595 146.622 65.3765 148.128 65.1109ZM191.603 57.445C193.088 57.1831 194.457 57.2996 195.709 57.794C196.96 58.2885 198.015 59.1318 198.872 60.3242C199.75 61.513 200.348 63.0115 200.667 64.819L200.762 65.3547C200.791 65.5229 200.818 65.7353 200.841 65.9912L189.446 68.0005C189.793 69.2473 190.301 70.1653 190.974 70.7535C191.858 71.4861 192.939 71.7399 194.214 71.5149C195.051 71.3674 195.739 71.051 196.279 70.5658C196.819 70.0805 197.179 69.3776 197.362 68.457L201.019 69.015C200.769 70.5326 200.089 71.8125 198.979 72.8534C197.886 73.8696 196.461 74.532 194.704 74.8418C193.156 75.1147 191.733 74.9977 190.436 74.4896C189.16 73.9779 188.083 73.1274 187.205 71.9387C186.323 70.729 185.729 69.2518 185.421 67.5074C185.102 65.6999 185.152 64.087 185.57 62.6696C186.01 61.2486 186.744 60.0899 187.772 59.1935C188.821 58.2935 190.098 57.7105 191.603 57.445ZM234.835 49.8221C236.32 49.5604 237.688 49.6769 238.939 50.1713C240.191 50.6657 241.245 51.5091 242.103 52.7015C242.981 53.8902 243.579 55.3888 243.898 57.1963L243.992 57.732C244.022 57.9002 244.049 58.1124 244.073 58.3683L232.676 60.3778C233.023 61.6249 233.533 62.5424 234.206 63.1306C235.09 63.8632 236.169 64.1172 237.445 63.8922C238.281 63.7447 238.97 63.4283 239.51 62.9431C240.049 62.4578 240.411 61.7547 240.594 60.8342L244.25 61.3923C244 62.91 243.32 64.1897 242.21 65.2307C241.117 66.2469 239.691 66.9093 237.934 67.2191C236.387 67.4919 234.965 67.3747 233.668 66.8667C232.391 66.355 231.314 65.5048 230.435 64.316C229.554 63.1063 228.959 61.629 228.652 59.8847C228.333 58.0771 228.382 56.4643 228.801 55.0469C229.24 53.6259 229.974 52.4672 231.002 51.5708C232.051 50.6707 233.329 50.0876 234.835 49.8221ZM143.566 83.5017L139.519 84.2153L136.686 78.8643L128.069 80.3838L127.285 86.3725L123.333 87.0695L126.806 64.0274L132.422 63.0372L143.566 83.5017ZM171.998 64.0455C172.318 63.0348 172.828 62.2001 173.529 61.5424C174.324 60.7954 175.287 60.3231 176.416 60.1239C177.545 59.9248 178.585 60.0119 179.535 60.386C180.485 60.7603 181.288 61.3987 181.944 62.3016C182.599 63.2046 183.045 64.3291 183.282 65.6742L185.133 76.1724L181.494 76.8141L179.787 67.1352C179.546 65.7694 179.02 64.8005 178.208 64.2287C177.413 63.6321 176.523 63.42 175.54 63.5933C174.557 63.7667 173.784 64.272 173.219 65.1083C172.707 65.8691 172.541 66.8735 172.72 68.1215L172.761 68.3742L174.468 78.053L170.828 78.6947L166.854 56.1537L170.493 55.5121L171.998 64.0455ZM216.014 47.0948C216.516 47.0063 216.961 46.96 217.348 46.9567C217.757 46.9497 218.179 46.9626 218.616 46.994L219.177 50.1773C218.849 50.1485 218.512 50.1325 218.166 50.1285C217.841 50.1207 217.49 50.1505 217.114 50.2169C216.319 50.357 215.748 50.6638 215.4 51.1369C215.073 51.6062 214.975 52.2087 215.105 52.9441L215.227 53.6375L225.422 51.8398L228.369 68.5488L224.729 69.1905L222.333 55.6023L215.777 56.7583L218.173 70.3465L214.502 70.9938L212.106 57.4056L210.306 57.723L210.423 58.3856L209.011 58.6346C207.861 58.8374 206.994 59.3039 206.411 60.0351C205.849 60.7371 205.692 61.7961 205.937 63.2116L207.526 72.2239L203.887 72.8656L200.941 56.1566L204.58 55.5149L205.172 58.8732C205.444 57.6765 205.915 56.6879 206.59 55.9082C207.363 55.035 208.398 54.4837 209.695 54.255L209.756 54.6022L211.556 54.2848L211.473 53.8116C211.135 51.8992 211.375 50.3833 212.191 49.2643C213.003 48.1241 214.278 47.4009 216.014 47.0948ZM250.757 64.6012L247.117 65.2429L243.143 42.702L246.782 42.0603L250.757 64.6012ZM257.804 49.1207C256.633 49.3272 255.76 49.9365 255.183 50.9483C254.628 51.9564 254.515 53.3955 254.845 55.266C255.175 57.1365 255.773 58.4502 256.64 59.2076C257.527 59.9613 258.557 60.2351 259.728 60.0286C260.899 59.8221 261.762 59.2145 262.318 58.2064C262.894 57.1946 263.018 55.7534 262.688 53.8831C262.358 52.0127 261.749 50.7008 260.861 49.9471C259.995 49.1898 258.976 48.9142 257.804 49.1207ZM128.548 76.7235L134.954 75.5939L129.935 66.1154L128.548 76.7235ZM148.678 68.2327C147.486 68.4429 146.602 69.0533 146.025 70.0649C145.625 70.7725 145.459 71.7342 145.525 72.9496L153.074 71.6184C152.726 70.434 152.258 69.5738 151.667 69.0384C150.846 68.2947 149.849 68.0262 148.678 68.2327ZM192.154 60.5667C190.962 60.777 190.077 61.3873 189.501 62.399C189.1 63.1065 188.935 64.0682 189 65.2837L196.55 63.9525C196.202 62.7681 195.734 61.9078 195.143 61.3724C194.322 60.6287 193.325 60.3602 192.154 60.5667ZM235.385 52.9439C234.194 53.154 233.309 53.7646 232.733 54.7761C232.332 55.4836 232.165 56.4455 232.231 57.661L239.781 56.3296C239.433 55.1451 238.965 54.2851 238.374 53.7497C237.552 53.0061 236.556 52.7375 235.385 52.9439ZM222.463 45.6978C223.09 45.5872 223.65 45.7047 224.143 46.0512C224.652 46.373 224.966 46.8706 225.085 47.543C225.2 48.1945 225.073 48.7587 224.704 49.2355C224.356 49.7085 223.869 50.0006 223.241 50.1112C222.614 50.2218 222.045 50.1161 221.535 49.7942C221.047 49.4686 220.745 48.9799 220.63 48.3285C220.512 47.6561 220.626 47.083 220.974 46.6099C221.339 46.1122 221.836 45.8085 222.463 45.6978ZM173.236 17.6451C173.813 17.5434 174.358 17.5803 174.869 17.7547C175.381 17.9292 175.819 18.2315 176.182 18.6627C176.542 19.0826 176.782 19.6335 176.902 20.3146C176.936 20.5043 176.956 20.6849 176.963 20.8562C176.968 21.0164 176.964 21.1554 176.95 21.273L171.634 22.2104C171.837 23.2337 172.231 23.97 172.815 24.4197C173.398 24.8694 174.09 25.0239 174.89 24.8829C175.423 24.7889 175.848 24.6043 176.166 24.3295C176.483 24.0435 176.761 23.7011 177 23.302L177.455 23.55C177.248 24.1965 176.91 24.7454 176.439 25.1967C175.967 25.6368 175.353 25.9237 174.598 26.0569C173.476 26.2547 172.512 26.0504 171.706 25.4442C170.899 24.8268 170.382 23.8761 170.155 22.5921C170.004 21.7323 170.044 20.9535 170.276 20.2564C170.519 19.5574 170.899 18.9779 171.413 18.5188C171.939 18.0578 172.547 17.7666 173.236 17.6451ZM197.308 9.20387L197.66 11.5941L198.23 14.8265C198.561 14.2962 198.974 13.8437 199.469 13.4686C199.963 13.0824 200.476 12.8419 201.009 12.7479C201.731 12.6207 202.308 12.7722 202.738 13.2025C203.179 13.62 203.496 14.3762 203.689 15.4704L204.194 18.3344C204.291 18.8237 204.383 19.2798 204.469 19.702L205.677 19.731L205.783 20.333L201.917 21.0147L201.81 20.4127L202.988 19.9799C202.925 19.5537 202.849 19.0949 202.763 18.6036C202.685 18.0993 202.614 17.6569 202.547 17.2773L202.296 15.8539C202.16 15.0839 201.961 14.5722 201.699 14.319C201.437 14.0659 201.061 13.9824 200.572 14.0685C200.161 14.141 199.787 14.2932 199.449 14.5252C199.112 14.7574 198.767 15.1064 198.413 15.5716L199.06 19.2397C199.158 19.7289 199.25 20.1848 199.336 20.6071L200.527 20.6389L200.634 21.241L196.767 21.9228L196.705 21.5718C196.343 22.0265 195.82 22.3148 195.135 22.4355C194.558 22.5374 194.069 22.462 193.67 22.2101C193.27 21.9582 193.014 21.5088 192.899 20.8614L192.79 20.2411C192.764 20.0271 192.722 19.7578 192.665 19.4342L191.968 15.4825L190.795 15.6894C190.767 16.2004 190.499 16.501 189.991 16.5907C189.802 16.6239 189.618 16.6213 189.44 16.5837C189.26 16.5349 189.079 16.4572 188.9 16.3506L188.668 16.2022C188.378 16.5065 188.153 16.8568 187.994 17.2531C187.835 17.6495 187.725 18.1007 187.666 18.6061L188.114 21.1518C188.212 21.6411 188.305 22.0978 188.39 22.5202L189.801 22.5302L189.908 23.1332L185.858 23.8473L185.764 23.3145C185.636 23.5781 185.485 23.7831 185.306 23.9268C185.094 24.0907 184.844 24.1986 184.555 24.2495C184.155 24.32 183.801 24.2613 183.493 24.0739C183.185 23.8864 182.963 23.6033 182.828 23.2244C182.451 23.7511 182.111 24.1569 181.806 24.4409C181.501 24.7249 181.103 24.9098 180.614 24.996C180.003 25.1037 179.445 25.0235 178.94 24.7558C178.443 24.4749 178.134 23.9883 178.012 23.2961C177.955 22.9724 177.974 22.6584 178.069 22.3539C178.175 22.0473 178.405 21.7241 178.758 21.3856C179.111 21.0472 179.636 20.6789 180.333 20.2798C180.573 20.1455 180.85 19.9987 181.166 19.8395C181.481 19.6802 181.799 19.5317 182.119 19.3948L182.045 18.9755C181.901 18.1608 181.683 17.6406 181.392 17.4157C181.1 17.1909 180.676 17.1275 180.121 17.2254C179.999 17.2469 179.861 17.2776 179.707 17.3161C179.565 17.3527 179.408 17.4091 179.238 17.4851L179.114 18.6295C179.053 19.1927 178.811 19.5118 178.389 19.5863C177.923 19.6686 177.621 19.4856 177.484 19.0379C177.528 18.374 177.806 17.8062 178.319 17.3359C178.84 16.8526 179.524 16.5364 180.368 16.3875C181.245 16.2328 181.935 16.3418 182.436 16.7139C182.935 17.075 183.278 17.7857 183.465 18.8461L184.094 22.4141C184.157 22.7713 184.258 23.0182 184.397 23.1549C184.534 23.2803 184.691 23.3272 184.868 23.296C185.012 23.2705 185.129 23.2157 185.217 23.1313C185.305 23.0467 185.384 22.9403 185.453 22.813L185.852 23.1225C185.838 23.1575 185.82 23.1906 185.805 23.2239L186.912 22.8145C186.849 22.3884 186.774 21.9293 186.687 21.4381C186.61 20.9341 186.538 20.4923 186.471 20.1129L186.329 19.3089C186.248 18.8511 186.176 18.4716 186.112 18.1721C186.058 17.8708 185.991 17.5548 185.91 17.224L184.566 17.3052L184.463 16.7195L186.616 15.2858L186.896 15.409L187.428 17.353C187.587 16.6342 187.85 16.0465 188.217 15.5906C188.594 15.1328 189.005 14.8646 189.449 14.7862C189.705 14.7412 189.953 14.7548 190.195 14.8272C190.314 14.8628 190.42 14.9111 190.512 14.9707L191.905 14.5435L191.942 12.2225L192.943 12.0462L193.244 14.3421L195.495 13.9453L195.651 14.833L193.384 15.2327L194.3 20.4241C194.375 20.8483 194.513 21.1461 194.715 21.3177C194.915 21.4781 195.154 21.5338 195.432 21.4848C195.621 21.4515 195.792 21.3819 195.945 21.2744C196.109 21.1649 196.283 21.0182 196.469 20.8359L196.946 21.2011C196.943 21.2064 196.939 21.2113 196.936 21.2166L197.869 20.8657C197.806 20.4395 197.73 19.9806 197.643 19.4894C197.566 18.985 197.495 18.5479 197.43 18.1794L196.134 10.827L194.738 10.9006L194.634 10.3149L197.051 9.1114L197.308 9.20387ZM182.228 20.0141C181.953 20.1432 181.685 20.2829 181.425 20.4324C181.163 20.5707 180.949 20.6893 180.783 20.7876C180.339 21.0616 180.017 21.3193 179.819 21.5614C179.622 21.8034 179.501 22.0268 179.456 22.2303C179.423 22.4317 179.421 22.6162 179.451 22.7836C179.53 23.2302 179.714 23.5262 180.003 23.6709C180.292 23.8155 180.626 23.8546 181.003 23.788C181.17 23.7586 181.321 23.7085 181.458 23.6385C181.605 23.5664 181.774 23.4504 181.964 23.2905C182.151 23.1193 182.39 22.8815 182.68 22.5771L182.228 20.0141ZM173.271 18.4331C172.96 18.4879 172.659 18.6336 172.368 18.869C172.089 19.1024 171.867 19.4351 171.703 19.8669C171.549 20.2969 171.496 20.8421 171.544 21.5014L174.577 20.9666C174.977 20.8961 175.223 20.7656 175.315 20.5766C175.419 20.3856 175.449 20.1676 175.406 19.9219C175.349 19.5982 175.213 19.3169 174.999 19.0784C174.795 18.8269 174.539 18.6419 174.232 18.5235C173.936 18.4031 173.616 18.3725 173.271 18.4331Z" fill="#2683EB"/>
</svg>
